<?xml version="1.0" standalone="no"?>
<!DOCTYPE svg PUBLIC "-//W3C//DTD SVG 20010904//EN"
 "http://www.w3.org/TR/2001/REC-SVG-20010904/DTD/svg10.dtd">
<svg version="1.0" xmlns="http://www.w3.org/2000/svg"
 width="249.000000pt" height="584.000000pt" viewBox="0 0 249.000000 584.000000"
 preserveAspectRatio="xMidYMid meet">
<metadata>
Created by potrace 1.15, written by Peter Selinger 2001-2017
</metadata>
<g transform="translate(0.000000,584.000000) scale(0.100000,-0.100000)"
fill="#000000" stroke="none">
<path d="M1130 5709 c-25 -5 -70 -13 -100 -19 -228 -48 -242 -54 -339 -143
-117 -109 -201 -215 -275 -349 -31 -55 -86 -190 -92 -225 -3 -13 -13 -40 -24
-61 -46 -90 -69 -262 -75 -576 -5 -248 1 -341 31 -493 8 -40 14 -100 14 -135
0 -42 7 -78 21 -108 19 -41 49 -140 99 -332 10 -36 39 -108 64 -159 26 -51 70
-149 99 -218 l52 -126 -3 -180 c-3 -198 -10 -239 -53 -305 -54 -82 -186 -363
-224 -475 -52 -157 -67 -274 -67 -503 1 -281 19 -376 102 -529 45 -83 139
-198 214 -261 28 -23 64 -53 79 -67 67 -57 226 -89 447 -90 123 0 167 4 215
18 224 69 437 270 530 500 46 112 109 386 129 557 22 183 17 264 -29 475 -43
198 -49 272 -31 398 8 62 20 159 26 215 14 128 47 248 105 372 80 174 129 312
150 424 8 45 21 110 29 146 65 292 67 759 5 1046 -24 114 -97 328 -148 439
-83 178 -250 399 -418 551 -46 42 -83 73 -83 70 0 -3 -10 4 -22 15 -70 62
-104 89 -116 89 -7 0 -24 8 -39 17 -14 9 -35 18 -47 19 -62 8 -187 9 -226 3z
m220 -32 c76 -18 104 -36 249 -158 181 -153 345 -358 445 -556 45 -91 131
-340 157 -456 29 -132 44 -311 44 -527 -1 -203 -14 -343 -47 -495 -10 -49 -26
-126 -35 -170 -17 -88 -95 -308 -147 -413 -65 -130 -99 -261 -116 -444 -5 -58
-14 -136 -20 -173 -16 -99 5 -264 57 -460 25 -96 24 -272 -3 -470 -15 -108
-70 -343 -100 -430 -57 -164 -194 -335 -352 -440 -117 -77 -222 -104 -402
-105 -284 0 -421 61 -598 268 -159 184 -204 348 -197 712 3 183 23 302 76 462
35 104 138 316 164 338 22 19 69 113 89 179 9 30 16 85 16 121 0 37 5 104 11
149 10 70 9 92 -6 144 -21 80 -84 233 -151 372 -29 61 -59 137 -68 170 -35
140 -74 265 -90 289 -11 17 -20 62 -25 128 -5 57 -18 164 -30 238 -18 117 -20
169 -17 400 4 271 19 409 53 490 8 19 24 69 35 110 36 139 141 330 252 463 22
26 77 81 123 121 90 79 164 113 268 121 28 2 68 11 90 19 44 17 212 19 275 3z"/>
</g>
</svg>
